<svg width="35" height="36" viewBox="0 0 35 36" fill="none" xmlns="http://www.w3.org/2000/svg">
<g clip-path="url(#clip0_1_138)">
<path d="M6.2622 0.805664C2.79322 0.805664 0 3.59888 0 7.06786V28.8392C0 32.3082 2.79322 35.1014 6.2622 35.1014H18.0621V21.6939H14.5168V16.8668H18.0621V12.7427C18.0621 9.50265 20.1568 6.5277 24.9823 6.5277C26.9361 6.5277 28.3808 6.71527 28.3808 6.71527L28.2672 11.223C28.2672 11.223 26.7938 11.2091 25.1859 11.2091C23.4458 11.2091 23.1668 12.0109 23.1668 13.3419V16.8668H28.4054L28.1772 21.694H23.1668V35.1015H28.0335C31.5025 35.1015 34.2957 32.3083 34.2957 28.8393V7.06789C34.2957 3.59892 31.5025 0.805698 28.0335 0.805698H6.26216L6.2622 0.805664Z" fill="#313131" fill-opacity="0.5"/>
</g>
<defs>
<clipPath id="clip0_1_138">
<rect y="0.805664" width="34.2957" height="34.2957" rx="9.70569" fill="white"/>
</clipPath>
</defs>
</svg>
