<svg width="35" height="36" viewBox="0 0 35 36" fill="none" xmlns="http://www.w3.org/2000/svg">
<path d="M17.4405 12.2351C14.2917 12.2351 11.7221 14.8048 11.7221 17.9535C11.7221 21.1023 14.2917 23.6719 17.4405 23.6719C20.5892 23.6719 23.1588 21.1023 23.1588 17.9535C23.1588 14.8048 20.5892 12.2351 17.4405 12.2351ZM34.5913 17.9535C34.5913 15.5855 34.6128 13.239 34.4798 10.8753C34.3468 8.12974 33.7205 5.6931 31.7128 3.68544C29.7009 1.67349 27.2685 1.05146 24.523 0.918477C22.155 0.785491 19.8085 0.80694 17.4447 0.80694C15.0767 0.80694 12.7302 0.785491 10.3665 0.918477C7.62095 1.05146 5.18431 1.67778 3.17665 3.68544C1.1647 5.69739 0.542673 8.12974 0.409687 10.8753C0.276702 13.2433 0.298151 15.5898 0.298151 17.9535C0.298151 20.3173 0.276702 22.6681 0.409687 25.0318C0.542673 27.7773 1.16899 30.214 3.17665 32.2216C5.1886 34.2336 7.62095 34.8556 10.3665 34.9886C12.7345 35.1216 15.081 35.1001 17.4447 35.1001C19.8127 35.1001 22.1593 35.1216 24.523 34.9886C27.2685 34.8556 29.7052 34.2293 31.7128 32.2216C33.7248 30.2097 34.3468 27.7773 34.4798 25.0318C34.6171 22.6681 34.5913 20.3215 34.5913 17.9535ZM17.4405 26.7521C12.5715 26.7521 8.64194 22.8225 8.64194 17.9535C8.64194 13.0845 12.5715 9.15502 17.4405 9.15502C22.3095 9.15502 26.239 13.0845 26.239 17.9535C26.239 22.8225 22.3095 26.7521 17.4405 26.7521ZM26.5993 10.8495C25.4625 10.8495 24.5445 9.93149 24.5445 8.79467C24.5445 7.65786 25.4625 6.73983 26.5993 6.73983C27.7361 6.73983 28.6542 7.65786 28.6542 8.79467C28.6545 9.06461 28.6016 9.33197 28.4984 9.58143C28.3953 9.83088 28.2439 10.0575 28.0531 10.2484C27.8622 10.4393 27.6355 10.5906 27.3861 10.6938C27.1366 10.7969 26.8693 10.8499 26.5993 10.8495Z" fill="#313131" fill-opacity="0.5"/>
</svg>
